<?xml version="1.0" standalone="no"?>
<!DOCTYPE svg PUBLIC "-//W3C//DTD SVG 20010904//EN"
 "http://www.w3.org/TR/2001/REC-SVG-20010904/DTD/svg10.dtd">
<svg version="1.0" xmlns="http://www.w3.org/2000/svg"
 width="3840.000000pt" height="274.000000pt" viewBox="0 0 3840.000000 274.000000"
 preserveAspectRatio="xMidYMid meet">
<metadata>
Created by potrace 1.13, written by Peter Selinger 2001-2015
</metadata>
<g transform="translate(0.000000,274.000000) scale(0.100000,-0.100000)"
fill="#000000" stroke="none">
<path d="M34520 2645 l-5 -100 -63 -5 c-70 -6 -84 -23 -22 -28 63 -5 49 -42
-16 -42 -23 0 -24 -2 -24 -75 l0 -75 -70 0 -70 0 0 -99 c0 -81 -3 -100 -15
-103 -14 -3 -16 -73 -15 -620 0 -380 -3 -619 -9 -623 -5 -3 -17 -19 -25 -37
-13 -25 -16 -69 -16 -225 l0 -193 -45 0 -45 0 0 355 0 355 -35 39 c-19 21 -35
45 -35 52 -1 18 -45 69 -61 69 -6 0 -8 7 -5 16 3 8 -1 23 -10 31 -10 10 -13
25 -10 39 5 19 2 24 -14 24 -11 0 -20 7 -20 15 0 8 -9 19 -20 25 -12 6 -20 21
-20 36 0 14 -4 22 -10 19 -5 -3 -10 -15 -10 -25 0 -22 -41 -70 -59 -70 -7 0
-10 -7 -7 -18 4 -11 -2 -27 -13 -39 -11 -11 -18 -23 -15 -26 3 -3 -10 -20 -29
-39 -28 -26 -36 -42 -38 -78 -2 -25 -10 -51 -17 -59 -12 -13 -17 -11 -34 10
-10 13 -23 34 -28 47 -5 12 -15 22 -22 22 -7 1 -25 17 -40 37 -25 32 -28 44
-26 107 l2 70 -50 22 -49 21 -48 -21 -49 -21 -3 -91 c-3 -109 -15 -137 -51
-128 -30 8 -47 -10 -38 -38 10 -32 -13 -19 -30 17 -9 19 -23 35 -30 35 -6 0
-26 15 -44 33 -25 26 -32 42 -32 73 0 28 -5 42 -18 49 -10 6 -31 16 -45 24
-28 15 -26 15 -99 -24 -11 -6 -18 -21 -18 -40 -1 -46 -17 -107 -32 -116 -29
-19 -38 -9 -38 41 0 35 -4 50 -13 50 -8 0 -22 9 -32 20 -10 11 -22 17 -27 14
-5 -4 -22 6 -38 21 -23 22 -27 32 -20 50 7 18 3 25 -20 38 -33 20 -88 22 -124
6 -23 -11 -25 -16 -20 -53 5 -32 2 -47 -14 -66 -19 -24 -21 -24 -39 -7 -11 9
-23 17 -27 17 -11 0 -36 -66 -36 -96 0 -24 -4 -22 -80 41 -62 52 -83 65 -94
56 -9 -8 -226 -10 -767 -9 -746 3 -754 3 -755 23 0 11 -1 32 -2 48 l-2 27
-692 -2 c-546 -2 -693 -6 -694 -15 -1 -7 -2 -181 -3 -385 l-1 -373 -20 25
c-19 24 -20 40 -17 345 l2 320 -29 24 c-26 23 -28 29 -24 82 3 41 0 60 -9 63
-7 3 -19 21 -27 41 -14 33 -17 88 -13 235 1 30 0 55 -3 56 -3 0 -15 6 -27 13
-22 11 -23 18 -23 123 0 108 -1 113 -27 140 -25 26 -25 29 -10 46 25 27 21 55
-13 87 l-30 29 -25 -24 c-30 -29 -33 -70 -5 -95 20 -18 20 -18 -14 -42 l-34
-24 6 -111 c4 -100 3 -112 -14 -121 -17 -10 -17 -11 1 -18 19 -7 19 -8 1 -8
-10 -1 -25 7 -33 17 -12 15 -13 9 -9 -48 10 -128 2 -265 -14 -255 -5 3 -11 -4
-15 -15 -3 -11 -11 -20 -16 -20 -5 0 -9 -29 -9 -64 0 -58 -3 -67 -27 -88 l-28
-23 3 -472 2 -473 -50 0 -50 0 -2 38 c0 20 -2 42 -3 47 -1 6 -4 111 -8 235 -4
124 -10 264 -14 313 l-6 87 -82 0 c-93 0 -102 6 -167 100 -18 27 -36 50 -40
50 -4 0 -28 -27 -54 -60 -50 -64 -54 -66 -72 -48 -9 9 -12 6 -12 -15 0 -15 -7
-30 -15 -33 -8 -4 -15 -12 -15 -19 0 -21 -50 -55 -81 -55 l-29 0 0 -320 c0
-313 0 -320 -20 -320 -20 0 -20 7 -20 448 l0 447 -22 10 c-13 6 -39 31 -58 58
-41 55 -64 59 -88 15 -9 -18 -29 -45 -44 -61 -16 -16 -28 -38 -28 -50 0 -12
-3 -40 -7 -61 l-6 -39 -116 7 c-86 5 -117 10 -124 21 -13 24 -39 18 -37 -7 1
-13 2 -195 1 -405 -1 -333 -3 -383 -16 -383 -13 0 -15 36 -15 268 0 174 -4
272 -10 278 -11 11 -17 42 -19 102 -1 31 -3 32 -41 32 -31 0 -45 6 -64 27 -24
27 -27 28 -108 23 -82 -5 -83 -5 -86 -32 l-3 -28 -139 0 -139 0 -3 27 -3 27
-90 -2 c-81 -3 -92 -5 -110 -27 -15 -18 -32 -25 -70 -27 l-50 -3 -3 -62 c-2
-35 -7 -63 -12 -63 -6 0 -10 -106 -10 -270 l0 -270 -27 0 -28 0 3 292 c2 160
1 301 -2 314 -3 12 -15 25 -26 29 -11 3 -62 60 -113 125 l-94 119 -30 -32
c-16 -18 -60 -67 -96 -109 l-67 -78 0 -330 c0 -323 0 -330 -20 -330 -19 0 -20
8 -22 333 l-3 332 -22 3 c-17 3 -24 13 -30 45 -8 40 -10 42 -50 45 -25 2 -48
11 -58 23 -23 24 -37 24 -59 0 -10 -11 -35 -23 -57 -26 -34 -6 -40 -11 -50
-46 -10 -31 -17 -39 -36 -39 l-23 0 0 -335 c0 -289 -2 -335 -15 -335 -12 0
-15 36 -17 238 l-3 237 -51 3 c-36 2 -57 9 -69 22 -24 27 -81 27 -97 0 -12
-18 -24 -20 -149 -20 -119 0 -138 -2 -152 -18 -15 -16 -17 -48 -17 -240 0
-215 -1 -222 -20 -222 -19 0 -20 7 -20 224 0 141 -4 226 -10 228 -6 2 -18 35
-28 73 l-17 70 -375 2 c-370 2 -375 2 -397 -19 -23 -21 -23 -23 -23 -300 0
-258 -1 -278 -17 -278 -17 0 -18 21 -15 319 l4 318 -24 6 c-39 11 -311 8 -352
-4 -29 -8 -45 -8 -61 1 -32 17 -336 10 -358 -8 -9 -8 -21 -38 -28 -69 -7 -30
-19 -61 -26 -68 -10 -11 -13 -68 -13 -249 l0 -236 -42 5 c-24 3 -92 9 -152 14
-82 7 -112 14 -118 25 -5 9 -20 16 -33 16 -24 0 -25 3 -25 65 l0 65 -73 0
c-51 0 -74 4 -75 13 -1 6 -4 41 -6 77 -4 53 -8 65 -25 72 -12 4 -21 16 -21 27
0 11 -4 75 -10 143 -5 68 -14 197 -21 288 -12 176 -20 200 -65 200 -36 0 -52
-25 -59 -92 -8 -87 -24 -342 -32 -528 -6 -124 -9 -144 -14 -102 -12 89 -33 85
-35 -6 -1 -95 2 -91 -56 -94 l-53 -3 -3 -63 c-3 -58 -4 -62 -27 -62 -13 0 -28
-6 -32 -14 -6 -11 -63 -19 -225 -33 l-218 -19 0 317 0 318 48 14 c43 13 23 14
-223 12 -148 -2 -290 -6 -315 -10 -30 -4 -40 -3 -31 3 9 6 -55 12 -191 17
-276 10 -359 6 -395 -21 -15 -11 -54 -31 -85 -43 l-58 -23 0 -79 0 -79 -36 0
c-31 0 -35 3 -32 22 3 22 -1 23 -64 26 -38 2 -68 7 -68 12 0 6 -7 10 -15 10
-8 0 -15 -4 -15 -10 0 -6 -30 -10 -70 -10 -44 0 -82 -6 -105 -17 -34 -16 -36
-16 -50 3 -8 10 -20 31 -27 47 -7 15 -18 27 -25 27 -7 0 -40 -19 -75 -43 l-63
-43 -142 4 -143 4 0 104 0 104 -45 0 c-32 0 -45 4 -45 14 0 18 -31 29 -54 20
-9 -3 -16 -12 -16 -20 0 -10 -12 -14 -39 -14 l-38 0 -7 -61 c-3 -34 -6 -90 -6
-124 0 -62 -12 -83 -37 -67 -15 11 -33 48 -33 72 0 11 -12 32 -27 45 l-28 24
-21 -20 c-12 -11 -29 -40 -39 -65 -16 -42 -24 -48 -52 -45 -7 1 -13 -3 -13 -9
0 -21 -16 -9 -35 27 -11 20 -34 56 -51 81 l-32 44 -47 -67 c-36 -51 -51 -64
-64 -59 -9 5 -46 10 -83 12 l-68 4 0 56 c-1 60 -13 138 -23 149 -4 3 -13 0
-22 -7 -8 -7 -15 -10 -15 -8 0 2 -9 47 -20 98 -11 51 -20 103 -20 116 0 12 -7
27 -16 35 -23 19 -34 -4 -34 -69 l0 -53 -570 2 -570 1 0 29 c0 19 -5 29 -15
29 -13 0 -15 22 -15 140 0 87 -4 140 -10 140 -6 0 -10 52 -10 136 0 132 -1
136 -20 131 -20 -5 -21 -2 -19 99 1 84 -2 108 -15 123 -9 10 -16 23 -16 29 0
7 -4 12 -10 12 -5 0 -10 -6 -10 -14 0 -7 -7 -19 -15 -26 -12 -10 -15 -36 -15
-116 l0 -104 -25 0 -25 0 0 -130 c0 -107 -3 -132 -15 -136 -12 -5 -15 -31 -15
-145 0 -110 -3 -139 -13 -139 -16 0 -27 -211 -27 -502 0 -131 -3 -169 -12
-166 -7 3 -16 20 -19 39 l-6 34 -2 -37 c-1 -31 -5 -38 -21 -38 -16 0 -20 7
-20 31 0 19 -4 28 -11 23 -6 -3 -9 -15 -6 -25 4 -15 0 -19 -20 -19 -22 0 -25
4 -21 25 3 14 1 28 -3 31 -5 3 -9 -9 -9 -25 0 -40 -27 -42 -33 -3 l-4 27 -2
-27 c-1 -22 -6 -28 -25 -28 -23 0 -41 23 -31 40 3 5 1 11 -5 15 -6 4 -10 -6
-10 -24 0 -38 -17 -41 -23 -3 l-4 27 -2 -28 c-1 -26 -4 -28 -33 -25 -29 3 -34
7 -39 38 -5 27 -7 29 -8 10 -1 -20 -3 -22 -11 -10 -8 12 -10 9 -10 -12 0 -29
-12 -34 -57 -22 -15 4 -23 15 -26 38 l-3 31 -8 -32 c-8 -30 -12 -33 -47 -33
-37 0 -39 2 -39 30 0 17 -4 30 -10 30 -5 0 -10 -13 -10 -30 0 -28 -2 -30 -40
-30 -35 0 -40 3 -40 24 0 13 -7 29 -15 36 -13 11 -15 7 -15 -24 0 -36 -1 -37
-32 -34 -25 2 -34 9 -39 28 -7 24 -7 24 -8 3 -2 -35 -19 -27 -24 9 l-4 33 -1
-32 c-2 -34 -18 -43 -40 -21 -16 16 -15 31 1 22 9 -6 8 -3 -1 8 -18 23 -40 12
-36 -18 1 -15 -3 -24 -12 -24 -17 0 -16 50 1 62 6 4 2 8 -7 8 -14 0 -18 -8
-18 -35 0 -28 -4 -35 -20 -35 -15 0 -20 7 -20 25 0 14 -5 25 -11 25 -5 0 -9
-10 -7 -22 2 -17 -2 -23 -17 -23 -15 0 -20 7 -21 28 -2 42 -14 45 -14 4 0 -26
-4 -37 -15 -37 -9 0 -15 9 -15 25 0 14 -4 25 -9 25 -4 0 -8 -10 -7 -22 0 -11
-4 -23 -11 -25 -17 -6 -27 128 -18 250 l7 103 145 -19 c80 -10 155 -16 168
-13 25 6 41 34 27 48 -7 7 -683 100 -689 95 -9 -10 -10 -59 0 -63 7 -2 73 -12
147 -22 l135 -17 2 -142 c2 -95 -1 -143 -8 -143 -6 0 -80 12 -165 26 l-154 26
-157 -26 c-87 -14 -161 -26 -165 -26 -4 0 -6 64 -5 142 l2 143 90 12 c50 6
112 14 138 16 58 6 67 13 60 50 -5 24 -9 27 -37 22 -38 -6 -647 -85 -658 -85
-4 0 -8 -9 -8 -20 0 -40 37 -44 200 -23 l150 19 0 -178 c0 -117 -3 -177 -10
-173 -6 3 -10 15 -10 26 0 10 -4 19 -10 19 -5 0 -9 -10 -7 -23 1 -16 -3 -22
-18 -22 -15 0 -22 9 -26 35 l-6 35 -2 -37 c-1 -45 -27 -53 -34 -11 l-4 28 -2
-28 c-1 -25 -5 -28 -29 -25 -22 2 -27 8 -27 32 0 16 -6 31 -14 34 -8 3 -11 0
-7 -7 4 -6 1 -11 -8 -11 -10 0 -16 -9 -16 -25 0 -22 -4 -25 -35 -25 -33 0 -35
2 -35 31 0 27 -2 30 -15 19 -9 -7 -14 -22 -13 -33 3 -18 -3 -21 -37 -21 -36
-1 -40 1 -45 29 -4 20 -8 26 -13 17 -5 -7 -5 -21 -2 -32 6 -18 2 -20 -39 -20
-42 0 -46 2 -46 24 0 14 -4 28 -10 31 -6 4 -10 -7 -10 -24 0 -29 -2 -31 -40
-31 -37 0 -40 2 -41 28 l-1 27 -8 -30 -8 -30 -2 35 -3 35 -6 -35 c-5 -31 -9
-35 -36 -34 -22 0 -29 5 -27 16 1 9 -2 19 -8 23 -6 4 -10 -5 -10 -20 0 -16 -4
-24 -11 -19 -6 3 -9 14 -6 24 2 10 1 24 -4 31 -6 9 -9 1 -9 -23 0 -34 -3 -38
-25 -38 -20 0 -25 5 -25 25 0 14 -5 25 -11 25 -7 0 -9 -10 -5 -26 6 -21 4 -25
-11 -22 -11 2 -18 12 -18 25 0 12 -4 25 -8 29 -4 4 -7 -7 -7 -24 0 -25 -4 -32
-20 -32 -15 0 -20 7 -20 25 0 14 -5 25 -11 25 -7 0 -9 -10 -7 -25 4 -21 1 -25
-19 -25 -19 0 -24 5 -23 23 3 38 -2 44 -9 9 -7 -38 -23 -43 -32 -10 l-6 23 -4
-24 c-2 -14 -10 -26 -16 -28 -10 -4 -13 56 -15 262 l-3 267 -118 69 -118 69
-547 6 c-516 5 -550 7 -596 26 l-48 20 -48 -21 c-47 -20 -65 -21 -553 -21
l-505 0 -156 -72 -156 -73 0 -246 c0 -135 -3 -294 -7 -353 l-6 -108 -146 5
c-116 4 -174 11 -281 36 -187 44 -443 113 -454 122 -5 5 0 33 12 67 12 32 22
64 22 70 0 6 -21 14 -47 17 -90 12 -83 -1 -83 164 l0 148 -46 7 c-59 8 -177 8
-198 0 -13 -5 -16 -27 -16 -135 0 -71 -3 -129 -6 -129 -18 0 -631 105 -834
143 -188 36 -246 43 -285 37 -28 -4 -53 -6 -58 -3 -14 8 4 23 29 23 16 0 24 5
22 12 -3 8 -18 12 -39 10 -19 -1 -143 15 -275 38 -724 121 -1500 201 -1563
161 -11 -7 24 -81 169 -358 100 -191 187 -352 191 -358 5 -5 9 -24 9 -42 l0
-33 -194 0 -194 0 -2 171 c-1 173 -2 179 -50 329 -8 25 -8 24 -9 -5 -2 -64
-18 -61 -50 10 -24 53 -34 66 -43 57 -19 -19 -115 -15 -122 4 -3 9 -6 64 -6
123 0 105 -1 110 -38 182 -33 67 -40 74 -69 77 -49 5 -65 -9 -98 -90 l-31 -73
-57 -3 c-36 -2 -57 1 -57 8 0 7 -12 9 -32 5 l-33 -6 -46 103 -47 103 -76 3
c-42 2 -84 -1 -93 -6 -9 -5 -37 -63 -64 -128 -27 -70 -52 -119 -60 -119 -17 0
-27 -21 -28 -57 l-1 -28 -235 0 -235 0 0 66 c0 40 -9 95 -22 139 l-23 73 -52
7 c-51 6 -53 8 -83 60 -17 30 -35 57 -39 59 -4 3 -22 -22 -40 -56 -28 -51 -37
-59 -57 -55 -21 4 -23 0 -26 -42 l-3 -46 -198 -3 -197 -2 0 48 c0 48 0 49 -30
44 -17 -2 -30 0 -30 4 0 5 -14 33 -31 63 l-31 54 -38 -60 c-40 -65 -58 -73
-156 -73 l-41 0 -21 -74 c-13 -43 -22 -102 -22 -140 l0 -66 -195 0 -195 0 0
28 c0 32 -10 47 -29 47 -9 0 -33 46 -64 122 -58 143 -66 149 -172 138 l-68 -8
-48 -103 c-48 -103 -49 -104 -81 -102 -33 3 -33 3 -42 -55 l-8 -58 -52 3 -51
3 3 41 c4 45 -49 189 -77 212 -8 6 -38 12 -66 12 l-51 0 -34 -68 c-27 -53 -35
-83 -39 -147 l-6 -80 -58 1 -57 1 -11 -41 c-5 -23 -14 -52 -19 -66 -5 -14 -11
-95 -12 -180 l-3 -155 -47 -3 c-45 -3 -47 -2 -69 38 -19 33 -27 40 -44 34 -30
-10 -105 -17 -105 -10 0 4 9 17 20 29 l21 22 -21 9 c-19 9 -20 18 -20 150 0
130 2 143 20 156 25 18 26 30 1 30 -10 0 -75 41 -145 92 l-126 91 0 54 c0 51
-2 54 -23 51 -19 -3 -22 -10 -25 -55 -2 -32 -9 -56 -19 -65 -13 -10 -17 -10
-20 0 -9 25 -33 12 -33 -18 0 -20 -5 -30 -15 -30 -9 0 -15 9 -15 25 0 14 -4
25 -10 25 -5 0 -10 -11 -10 -25 0 -16 -6 -25 -15 -25 -8 0 -15 9 -15 20 0 11
-7 20 -15 20 -8 0 -15 -9 -15 -20 0 -27 -16 -25 -25 3 l-8 22 -4 -23 c-2 -12
-8 -22 -13 -22 -9 0 -23 50 -16 57 3 3 -2 12 -10 20 -21 22 -42 10 -37 -21 10
-50 -6 -56 -163 -56 l-144 0 0 31 c0 32 -23 64 -39 54 -12 -7 -25 14 -26 39 0
26 -23 32 -31 9 -3 -10 -10 -28 -16 -40 -6 -11 -7 -27 -2 -34 4 -7 9 -23 10
-36 2 -21 -1 -23 -42 -23 -25 0 -43 4 -40 9 3 5 -2 15 -11 22 -13 11 -17 11
-20 1 -8 -21 -23 -13 -23 12 0 16 -7 26 -21 29 -20 5 -20 10 -17 196 2 135 7
194 15 203 19 18 16 35 -6 41 -11 3 -27 22 -36 43 -20 48 -48 79 -87 95 -29
12 -30 13 -26 75 2 46 -1 67 -13 81 -9 10 -20 27 -24 38 l-8 20 -5 -20 c-2
-11 -12 -29 -23 -40 -14 -16 -17 -32 -14 -82 4 -57 2 -63 -18 -69 -34 -10 -78
-55 -98 -101 -10 -24 -25 -43 -34 -43 -17 0 -21 -25 -5 -35 6 -4 10 -83 10
-206 0 -160 -3 -199 -13 -199 -8 0 -22 -16 -33 -35 -17 -32 -22 -35 -66 -35
-38 0 -48 4 -53 20 -3 10 -1 29 5 40 9 17 8 27 -4 45 -9 14 -16 31 -16 40 0
22 -17 19 -30 -5 -8 -15 -17 -19 -31 -15 -11 4 -19 2 -19 -4 0 -6 5 -11 10
-11 15 0 12 -16 -5 -34 -8 -8 -15 -29 -15 -46 l0 -31 -137 3 -138 3 -5 39 c-6
50 -29 61 -31 14 -1 -23 -3 -26 -6 -10 -3 14 -12 22 -24 22 -13 0 -18 -4 -13
-12 4 -6 1 -16 -7 -22 -8 -6 -14 -17 -14 -23 0 -23 -20 -19 -23 5 -2 12 -10
22 -17 22 -9 0 -12 -6 -9 -15 8 -20 -4 -35 -22 -28 -10 4 -14 14 -11 29 3 16
0 24 -9 24 -8 0 -14 -11 -14 -25 0 -18 -5 -25 -20 -25 -16 0 -20 7 -20 30 0
20 -5 30 -15 30 -8 0 -15 -7 -15 -16 0 -15 -2 -15 -23 -2 -17 12 -23 28 -27
69 -4 46 -8 54 -25 54 -17 0 -21 -8 -25 -52 l-5 -53 -125 -90 c-70 -51 -134
-90 -147 -90 -30 0 -29 -13 2 -30 25 -13 25 -14 25 -156 l0 -142 -28 -7 c-15
-4 -21 -10 -14 -12 6 -3 12 -11 12 -18 0 -7 7 -15 15 -19 12 -4 15 -30 15
-141 l0 -135 -30 0 -30 0 0 -210 0 -210 19200 0 19200 0 0 210 c0 209 0 210
-24 225 -22 15 -24 24 -30 143 -4 70 -12 168 -17 217 -6 50 -12 187 -14 305
-4 174 -8 216 -19 218 -10 2 -15 25 -17 87 -3 66 -8 87 -22 97 -12 9 -20 36
-26 86 -5 40 -15 79 -21 87 -6 8 -9 23 -5 34 3 10 1 22 -4 25 -6 4 -15 33 -22
66 -11 55 -14 60 -38 60 -14 0 -32 -4 -38 -8 -13 -8 -34 -114 -33 -164 0 -15
-4 -29 -10 -33 -5 -3 -10 -39 -10 -80 0 -55 -4 -74 -15 -79 -12 -4 -15 -26
-15 -105 0 -67 -4 -101 -12 -103 -9 -3 -9 -18 0 -63 16 -76 15 -131 0 -134 -7
-2 -237 -5 -510 -7 -349 -3 -498 -1 -503 6 -4 7 -11 8 -18 2 -7 -5 -128 -12
-271 -15 -162 -3 -261 -8 -265 -15 -3 -6 -20 -12 -36 -14 -29 -3 -30 -4 -45
-95 -8 -50 -18 -95 -22 -99 -5 -4 -8 22 -8 57 0 45 -3 60 -10 49 -5 -8 -10
-30 -10 -49 0 -30 -2 -32 -17 -20 -13 11 -17 11 -20 2 -3 -7 -11 -13 -18 -13
-7 0 -15 -6 -18 -12 -3 -10 -13 -9 -41 5 -21 9 -41 15 -45 13 -4 -3 -13 -36
-20 -75 -9 -51 -17 -70 -30 -74 -22 -5 -31 -46 -31 -143 0 -70 -1 -74 -22 -74
-25 0 -58 -47 -58 -81 0 -16 -7 -19 -44 -19 -43 0 -44 0 -50 40 -3 22 -9 79
-12 127 l-6 88 65 80 c36 44 63 83 61 87 -2 3 13 9 34 13 34 5 38 9 34 30 -5
28 -32 42 -44 23 -5 -8 -8 -9 -8 -2 0 14 -38 26 -45 14 -9 -15 -65 -18 -65 -3
0 7 -4 13 -10 13 -5 0 -10 -7 -10 -15 0 -36 -19 -11 -29 38 -15 73 -41 230
-41 243 0 15 136 191 158 203 21 13 16 13 -87 11 -80 -2 -100 5 -101 32 0 4
100 9 223 10 216 3 222 4 219 23 -2 11 -5 21 -6 22 -1 1 -64 3 -140 4 -113 1
-136 3 -132 15 4 11 -8 14 -67 12 l-72 -2 63 -3 c34 -2 62 -8 62 -13 0 -13
-149 -7 -158 6 -10 14 -42 26 -42 14 0 -5 8 -11 18 -13 11 -3 8 -5 -9 -6 -18
-1 -29 6 -37 24 -7 14 -14 117 -18 240 -7 214 -7 215 -30 215 l-22 0 3 -187
c4 -178 -2 -242 -16 -178 -6 27 -7 25 -9 -15 -3 -87 16 -81 -268 -80 l-252 1
0 -26 c0 -21 5 -25 29 -25 16 0 32 -6 34 -12 4 -10 6 -10 6 0 1 6 6 12 11 12
6 0 10 -16 10 -37 0 -44 8 -40 12 5 l2 32 163 0 162 0 -17 -29 c-9 -16 -19
-25 -23 -20 -4 7 -8 6 -11 -3 -7 -18 -134 -15 -130 3 2 8 -6 5 -18 -6 -14 -12
-17 -21 -10 -23 7 -3 46 -56 87 -119 l75 -114 -16 -97 c-8 -53 -17 -108 -18
-122 -2 -19 -9 -25 -28 -26 -14 -1 -33 -5 -42 -9 -11 -4 -18 -3 -18 4 0 6 -7
11 -15 11 -8 0 -14 -3 -14 -7 3 -21 -3 -22 -30 -9 -24 13 -31 13 -40 2 -6 -7
-8 -16 -4 -19 3 -4 0 -13 -7 -22 -11 -13 -9 -15 11 -15 34 0 39 -5 108 -100
76 -104 76 -120 2 -125 -47 -4 -56 -1 -72 20 -12 14 -35 26 -59 30 -22 4 -40
11 -40 15 0 5 -22 -12 -48 -39 -58 -58 -104 -72 -127 -38 -9 15 -26 24 -47 25
-18 1 -38 9 -44 17 -10 13 -13 12 -20 -7 -5 -16 -9 3 -11 62 -4 87 -21 143
-48 154 -13 5 -15 80 -15 623 1 548 -1 618 -15 621 -12 3 -15 21 -15 98 l0 94
-80 0 -80 0 0 80 c0 78 -1 80 -24 80 -35 0 -56 10 -56 26 0 10 13 14 45 14 33
0 45 4 45 15 0 10 -16 15 -62 17 l-63 3 -5 100 -6 100 -4 -100z m957 -1257
c-2 -7 3 -18 11 -24 16 -12 17 -45 4 -129 l-8 -50 -48 75 c-26 41 -56 87 -67
102 -10 15 -19 30 -19 33 0 3 30 5 66 5 48 0 65 -3 61 -12z m-19557 -763 c80
-14 148 -25 153 -25 4 0 7 -40 7 -90 l0 -90 -320 0 -320 0 0 85 c0 59 4 87 13
90 19 8 269 53 297 54 14 0 90 -10 170 -24z m-700 -96 l50 -11 0 -49 0 -49
-160 0 -160 0 0 45 c0 25 3 45 8 45 4 1 30 7 57 15 62 17 138 18 205 4z m1315
-11 c37 -12 40 -16 43 -55 l3 -43 -170 0 -171 0 0 50 c0 49 0 49 38 55 20 4
42 8 47 11 20 8 171 -5 210 -18z m-1862 -9 l57 -12 0 -38 0 -39 -145 0 -145 0
0 35 c0 32 3 35 48 49 58 18 112 19 185 5z m2355 -4 c50 -15 52 -17 52 -50 l0
-35 -131 0 -130 0 3 42 c2 35 7 43 28 49 44 12 125 9 178 -6z"/>
</g>
</svg>
